<svg width="240" height="48" viewBox="0 0 240 48" fill="none" xmlns="http://www.w3.org/2000/svg">
<path d="M78.9479 12.5194V33.4472C78.9479 42.1324 74.7144 46.4743 66.2459 46.4743C63.981 46.4743 61.8351 46.1746 59.8055 45.5737C57.7773 44.9742 56.1007 44.1033 54.7769 42.9637L57.2473 38.6218C58.2762 39.514 59.5773 40.2308 61.1506 40.7695C62.7238 41.3081 64.3197 41.5782 65.9369 41.5782C68.5249 41.5782 70.4213 40.9617 71.626 39.7303C72.8322 38.4988 73.4345 36.6198 73.4345 34.0947V32.801C72.4934 33.8784 71.3468 34.6942 69.9947 35.2484C68.6426 35.8026 67.1572 36.0812 65.54 36.0812C63.3049 36.0812 61.2838 35.5807 59.4753 34.5797C57.6668 33.5786 56.241 32.169 55.1964 30.3523C54.1532 28.5355 53.6302 26.4557 53.6302 24.1158C53.6302 21.7745 54.1532 19.7032 55.1964 17.9019C56.241 16.1007 57.6668 14.7067 59.4753 13.7212C61.2838 12.7358 63.3049 12.2423 65.54 12.2423C67.2451 12.2423 68.797 12.535 70.1931 13.1203C71.5892 13.7057 72.7585 14.5992 73.6996 15.7996V12.5194H78.9479ZM66.3777 31.1836C68.4654 31.1836 70.1789 30.529 71.5169 29.2198C72.8549 27.9105 73.5238 26.2097 73.5238 24.1158C73.5238 22.0516 72.8549 20.3733 71.5169 19.0797C70.1789 17.786 68.4654 17.1399 66.3777 17.1399C64.2602 17.1399 62.5325 17.786 61.1945 19.0797C59.8566 20.3733 59.189 22.0516 59.189 24.1158C59.189 26.2097 59.8566 27.9105 61.1945 29.2198C62.5325 30.529 64.2602 31.1836 66.3777 31.1836ZM92.3969 37.512C90.0158 37.512 87.8686 36.9733 85.958 35.8959C84.0461 34.8172 82.5536 33.3157 81.4807 31.3914C80.4078 29.4672 79.8706 27.287 79.8706 24.8538C79.8706 22.422 80.4078 20.2503 81.4807 18.3402C82.5536 16.4315 84.0461 14.9371 85.958 13.8598C87.8686 12.781 90.0158 12.2423 92.3969 12.2423C94.8078 12.2423 96.9692 12.781 98.8812 13.8598C100.792 14.9371 102.284 16.4315 103.359 18.3402C104.431 20.2503 104.967 22.422 104.967 24.8538C104.967 27.287 104.431 29.4672 103.359 31.3914C102.284 33.3157 100.792 34.8172 98.8812 35.8959C96.9692 36.9733 94.8078 37.512 92.3969 37.512ZM92.3969 32.5692C94.4265 32.5692 96.1018 31.8608 97.4256 30.4442C98.748 29.0275 99.4099 27.164 99.4099 24.8538C99.4099 22.545 98.748 20.6816 97.4256 19.2649C96.1018 17.8482 94.4265 17.1399 92.3969 17.1399C90.3687 17.1399 88.6991 17.8482 87.3909 19.2649C86.0827 20.6816 85.4279 22.545 85.4279 24.8538C85.4279 27.164 86.0827 29.0275 87.3909 30.4442C88.6991 31.8608 90.3687 32.5692 92.3969 32.5692ZM135.618 12.2423C138.589 12.2423 140.94 13.1429 142.675 14.9456C144.41 16.7468 145.277 19.4487 145.277 23.0526V37.1896H139.764V23.792C139.764 21.6359 139.309 20.0114 138.398 18.9185C137.486 17.8242 136.177 17.2784 134.472 17.2784C132.619 17.2784 131.134 17.9175 130.017 19.1956C128.899 20.4737 128.34 22.2976 128.34 24.67V37.1896H122.827V23.792C122.827 21.6359 122.372 20.0114 121.461 18.9185C120.548 17.8242 119.24 17.2784 117.535 17.2784C115.652 17.2784 114.16 17.909 113.057 19.1716C111.955 20.4356 111.403 22.2679 111.403 24.67V37.1896H105.89V12.5194H111.138V15.661C112.021 14.5525 113.124 13.7057 114.446 13.1203C115.77 12.535 117.24 12.2423 118.857 12.2423C120.622 12.2423 122.188 12.5887 123.555 13.2815C124.922 13.9757 126.003 14.9993 126.797 16.3538C127.768 15.0601 129.016 14.052 130.546 13.3282C132.075 12.6043 133.766 12.2423 135.618 12.2423ZM147.965 12.5194H153.478V37.1896H147.965V12.5194ZM150.744 8.45464C149.743 8.45464 148.906 8.1238 148.23 7.46071C147.552 6.79903 147.215 5.97476 147.215 4.98931C147.215 4.00386 147.552 3.17959 148.23 2.51791C148.906 1.85623 149.743 1.52539 150.744 1.52539C151.743 1.52539 152.581 1.84068 153.257 2.47125C153.934 3.10324 154.272 3.89641 154.272 4.85075C154.272 5.8673 153.941 6.72127 153.28 7.41546C152.618 8.10825 151.773 8.45464 150.744 8.45464ZM169.705 12.2423C172.676 12.2423 175.057 13.1514 176.851 14.9682C178.644 16.785 179.541 19.4798 179.541 23.0526V37.1896H174.028V23.792C174.028 21.6359 173.543 20.0114 172.572 18.9185C171.603 17.8242 170.219 17.2784 168.427 17.2784C166.397 17.2784 164.795 17.9175 163.619 19.1956C162.443 20.4737 161.854 22.3131 161.854 24.7153V37.1896H156.341V12.5194H161.589V15.7077C162.501 14.5681 163.649 13.7057 165.031 13.1203C166.412 12.535 167.97 12.2423 169.705 12.2423ZM182.184 12.5194H187.698V37.1896H182.184V12.5194ZM184.962 8.45464C183.963 8.45464 183.124 8.1238 182.448 7.46071C181.772 6.79903 181.435 5.97476 181.435 4.98931C181.435 4.00386 181.772 3.17959 182.448 2.51791C183.124 1.85623 183.963 1.52539 184.962 1.52539C185.963 1.52539 186.801 1.84068 187.477 2.47125C188.153 3.10324 188.492 3.89641 188.492 4.85075C188.492 5.8673 188.16 6.72127 187.499 7.41546C186.838 8.10825 185.991 8.45464 184.962 8.45464ZM203.925 12.2423C206.894 12.2423 209.277 13.1514 211.07 14.9682C212.864 16.785 213.761 19.4798 213.761 23.0526V37.1896H208.248V23.792C208.248 21.6359 207.762 20.0114 206.792 18.9185C205.821 17.8242 204.439 17.2784 202.646 17.2784C200.617 17.2784 199.014 17.9175 197.837 19.1956C196.662 20.4737 196.074 22.3131 196.074 24.7153V37.1896H190.561V12.5194H195.809V15.7077C196.721 14.5681 197.867 13.7057 199.249 13.1203C200.631 12.535 202.19 12.2423 203.925 12.2423ZM240 12.5194V33.4472C240 42.1324 235.766 46.4743 227.298 46.4743C225.033 46.4743 222.887 46.1746 220.858 45.5737C218.829 44.9742 217.153 44.1033 215.83 42.9637L218.299 38.6218C219.328 39.514 220.631 40.2308 222.203 40.7695C223.776 41.3081 225.372 41.5782 226.989 41.5782C229.577 41.5782 231.473 40.9617 232.68 39.7303C233.884 38.4988 234.487 36.6198 234.487 34.0947V32.801C233.547 33.8784 232.399 34.6942 231.047 35.2484C229.695 35.8026 228.209 36.0812 226.592 36.0812C224.357 36.0812 222.336 35.5807 220.527 34.5797C218.719 33.5786 217.293 32.169 216.249 30.3523C215.205 28.5355 214.684 26.4557 214.684 24.1158C214.684 21.7745 215.205 19.7032 216.249 17.9019C217.293 16.1007 218.719 14.7067 220.527 13.7212C222.336 12.7358 224.357 12.2423 226.592 12.2423C228.297 12.2423 229.849 12.535 231.245 13.1203C232.643 13.7057 233.811 14.5992 234.752 15.7996V12.5194H240ZM227.43 31.1836C229.517 31.1836 231.231 30.529 232.569 29.2198C233.907 27.9105 234.576 26.2097 234.576 24.1158C234.576 22.0516 233.907 20.3733 232.569 19.0797C231.231 17.786 229.517 17.1399 227.43 17.1399C225.312 17.1399 223.586 17.786 222.248 19.0797C220.91 20.3733 220.241 22.0516 220.241 24.1158C220.241 26.2097 220.91 27.9105 222.248 29.2198C223.586 30.529 225.312 31.1836 227.43 31.1836Z" fill="#3D3D3D"/>
<path d="M24.0596 0C37.3468 0.000250137 48.1182 10.7454 48.1182 24C48.1182 37.2546 37.3468 47.9997 24.0596 48C10.7721 48 7.39839e-07 37.2548 0 24C0 10.7452 10.7721 0 24.0596 0ZM24.375 7.24121C21.9684 7.24124 19.3919 7.75671 16.9854 8.95703C12.861 10.8431 9.59506 14.2699 8.22168 18.5566C6.67403 22.8419 7.01903 27.2981 8.9082 31.2412C13.0326 39.6408 23.3434 43.07 31.7637 39.127C33.9988 38.0991 35.8878 36.7269 37.4355 34.8408C38.9818 33.1273 40.1851 31.069 40.8711 28.8408L37.2627 24.2139L40.7002 19.4131H35.7168L32.2793 24.2139L35.8877 29.0137C33.138 35.1834 25.7496 38.0983 19.3916 35.3555C16.2979 33.984 13.8913 31.5838 12.6895 28.499C11.4861 25.414 11.6594 22.1561 12.8613 19.2422C15.611 13.071 23.0004 10.1571 29.3584 12.8984C31.4206 13.7566 33.1385 15.1284 34.3418 16.6709H39.8408C36.9197 10.6705 30.7331 7.24121 24.375 7.24121ZM27.8125 19.4131L24.2041 24.2139L27.8125 28.8408H32.7959L29.3584 24.2139L32.7959 19.4131H27.8125Z" fill="#3D3D3D"/>
</svg>
